<?xml version="1.0" encoding="utf-8"?>
<!-- Generator: Adobe Illustrator 16.0.0, SVG Export Plug-In . SVG Version: 6.00 Build 0)  -->
<!DOCTYPE svg PUBLIC "-//W3C//DTD SVG 1.1//EN" "http://www.w3.org/Graphics/SVG/1.1/DTD/svg11.dtd">
<svg version="1.1" xmlns="http://www.w3.org/2000/svg" xmlns:xlink="http://www.w3.org/1999/xlink" x="0px" y="0px" width="1052px"
	 height="83.431px" viewBox="0 0 1052 83.431" enable-background="new 0 0 1052 83.431" xml:space="preserve">
<g id="Font">
	<g>
		<path d="M59.176,12.079c5.061,4.23,7.592,10.748,7.592,19.552c0,8.806-2.584,15.254-7.748,19.344
			c-5.166,4.092-13.088,6.136-23.764,6.136H22.36v21.32H10.088V5.735h24.96C46.072,5.735,54.114,7.851,59.176,12.079z
			 M50.492,42.083c2.46-2.6,3.692-6.412,3.692-11.44c0-5.026-1.56-8.58-4.68-10.66c-3.12-2.08-8.008-3.12-14.664-3.12H22.36v29.12
			h14.248C43.402,45.983,48.03,44.683,50.492,42.083z"/>
		<path d="M105.768,20.607l-25.48,57.824H67.184L99.216,5.735h13.104l32.032,72.696h-13.104L105.768,20.607z"/>
		<path d="M187.615,67.303c4.228,0,7.868-0.71,10.92-2.132c3.05-1.42,6.24-3.692,9.568-6.812l7.904,8.112
			c-7.696,8.528-17.04,12.792-28.028,12.792c-10.99,0-20.108-3.536-27.352-10.608c-7.246-7.072-10.868-16.016-10.868-26.832
			s3.692-19.828,11.076-27.04c7.384-7.21,16.708-10.816,27.976-10.816c11.266,0,20.678,4.16,28.236,12.48l-7.8,8.528
			c-3.468-3.328-6.744-5.65-9.828-6.968c-3.086-1.316-6.708-1.976-10.868-1.976c-7.35,0-13.52,2.375-18.512,7.124
			c-4.992,4.75-7.488,10.816-7.488,18.2c0,7.384,2.478,13.556,7.436,18.512C174.943,64.825,180.819,67.303,187.615,67.303z"/>
		<path d="M258.438,16.967v61.464h-12.272V16.967h-22.048V5.735h56.368v11.232H258.438z"/>
		<path d="M334.563,17.175v19.968h32.239v11.336h-32.239v29.952h-12.272V5.735h48.464l-0.104,11.44H334.563z"/>
		<path d="M445.945,68.395c-7.35,7.176-16.432,10.764-27.248,10.764c-10.815,0-19.899-3.588-27.248-10.764
			c-7.35-7.176-11.023-16.12-11.023-26.832c0-10.712,3.674-19.656,11.023-26.832c7.349-7.176,16.433-10.764,27.248-10.764
			c10.816,0,19.898,3.588,27.248,10.764c7.349,7.176,11.024,16.12,11.024,26.832C456.97,52.275,453.294,61.219,445.945,68.395z
			 M436.949,22.895c-4.957-5.13-11.042-7.696-18.252-7.696c-7.212,0-13.296,2.566-18.252,7.696
			c-4.958,5.132-7.436,11.354-7.436,18.668c0,7.316,2.478,13.538,7.436,18.668c4.956,5.132,11.04,7.696,18.252,7.696
			c7.21,0,13.295-2.564,18.252-7.696c4.957-5.13,7.437-11.352,7.437-18.668C444.386,34.249,441.906,28.027,436.949,22.895z"/>
		<path d="M488.794,61.791c3.328,3.884,7.834,5.824,13.52,5.824c5.685,0,10.192-1.94,13.521-5.824
			c3.328-3.882,4.992-9.152,4.992-15.808V5.735h12.271v40.768c0,10.47-2.878,18.53-8.632,24.18
			c-5.756,5.652-13.14,8.476-22.152,8.476c-9.014,0-16.397-2.824-22.151-8.476c-5.756-5.65-8.632-13.71-8.632-24.18V5.735h12.271
			v40.248C483.802,52.639,485.466,57.909,488.794,61.791z"/>
		<path d="M606.832,5.735h12.272v72.696h-13.313l-41.184-53.04v53.04h-12.272V5.735h12.272l42.224,54.288V5.735z"/>
		<path d="M694.296,15.251c7.003,6.344,10.505,15.168,10.505,26.468c0,11.302-3.398,20.246-10.192,26.832
			c-6.796,6.587-17.195,9.88-31.2,9.88H639.28V5.735h24.96C677.274,5.735,687.293,8.907,694.296,15.251z M692.425,42.031
			c0-16.64-9.534-24.96-28.601-24.96h-12.271v49.816h13.624c8.804,0,15.548-2.096,20.228-6.292
			C690.084,56.401,692.425,50.213,692.425,42.031z"/>
		<path d="M749.104,20.607l-25.48,57.824h-13.104l32.032-72.696h13.104l32.032,72.696h-13.104L749.104,20.607z"/>
		<path d="M819.512,16.967v61.464H807.24V16.967h-22.049V5.735h56.368v11.232H819.512z"/>
		<path d="M854.87,5.735h12.272v72.696H854.87V5.735z"/>
		<path d="M948.158,68.395c-7.35,7.176-16.432,10.764-27.248,10.764c-10.815,0-19.899-3.588-27.248-10.764
			c-7.35-7.176-11.023-16.12-11.023-26.832c0-10.712,3.674-19.656,11.023-26.832c7.349-7.176,16.433-10.764,27.248-10.764
			c10.816,0,19.898,3.588,27.248,10.764c7.349,7.176,11.024,16.12,11.024,26.832C959.183,52.275,955.507,61.219,948.158,68.395z
			 M939.162,22.895c-4.957-5.13-11.042-7.696-18.252-7.696c-7.212,0-13.296,2.566-18.252,7.696
			c-4.958,5.132-7.436,11.354-7.436,18.668c0,7.316,2.478,13.538,7.436,18.668c4.956,5.132,11.04,7.696,18.252,7.696
			c7.21,0,13.295-2.564,18.252-7.696c4.957-5.13,7.437-11.352,7.437-18.668C946.599,34.249,944.119,28.027,939.162,22.895z"/>
		<path d="M1029.174,5.735h12.272v72.696h-13.313l-41.184-53.04v53.04h-12.272V5.735h12.272l42.224,54.288V5.735z"/>
	</g>
</g>
<g id="Link">
</g>
</svg>
