<?xml version="1.0" encoding="utf-8"?>
<!-- Generator: Adobe Illustrator 16.0.0, SVG Export Plug-In . SVG Version: 6.00 Build 0)  -->
<!DOCTYPE svg PUBLIC "-//W3C//DTD SVG 1.1//EN" "http://www.w3.org/Graphics/SVG/1.1/DTD/svg11.dtd">
<svg version="1.1" xmlns="http://www.w3.org/2000/svg" xmlns:xlink="http://www.w3.org/1999/xlink" x="0px" y="0px" width="289px"
	 height="123px" viewBox="0 0 289 123" enable-background="new 0 0 289 123" xml:space="preserve">
<g id="Font">
	<g>
		<path d="M59.176,12.079c5.061,4.23,7.592,10.748,7.592,19.552c0,8.806-2.584,15.254-7.748,19.344
			c-5.166,4.092-13.088,6.136-23.764,6.136H22.36v21.32H10.088V5.735h24.96C46.072,5.735,54.114,7.851,59.176,12.079z
			 M50.492,42.083c2.46-2.6,3.692-6.412,3.692-11.44c0-5.026-1.56-8.58-4.68-10.66c-3.12-2.08-8.008-3.12-14.664-3.12H22.36v29.12
			h14.248C43.402,45.983,48.03,44.683,50.492,42.083z"/>
		<path d="M105.768,20.607l-25.48,57.824H67.184L99.216,5.735h13.104l32.032,72.696h-13.104L105.768,20.607z"/>
		<path d="M187.615,67.303c4.228,0,7.868-0.71,10.92-2.132c3.05-1.42,6.24-3.692,9.568-6.812l7.904,8.112
			c-7.696,8.528-17.04,12.792-28.028,12.792c-10.99,0-20.108-3.536-27.352-10.608c-7.246-7.072-10.868-16.016-10.868-26.832
			s3.692-19.828,11.076-27.04c7.384-7.21,16.708-10.816,27.976-10.816c11.266,0,20.678,4.16,28.236,12.48l-7.8,8.528
			c-3.468-3.328-6.744-5.65-9.828-6.968c-3.086-1.316-6.708-1.976-10.868-1.976c-7.35,0-13.52,2.375-18.512,7.124
			c-4.992,4.75-7.488,10.816-7.488,18.2c0,7.384,2.478,13.556,7.436,18.512C174.943,64.825,180.819,67.303,187.615,67.303z"/>
		<path d="M258.438,16.967v61.464h-12.272V16.967h-22.048V5.735h56.368v11.232H258.438z"/>
		<path d="M14.902,90.93v7.502h12.113v4.259H14.902v11.254h-4.611V86.631H28.5L28.46,90.93H14.902z"/>
		<path d="M56.749,110.173c-2.761,2.697-6.173,4.045-10.237,4.045c-4.063,0-7.476-1.348-10.237-4.045
			c-2.761-2.695-4.142-6.056-4.142-10.081c0-4.024,1.38-7.385,4.142-10.081c2.761-2.696,6.174-4.044,10.237-4.044
			c4.064,0,7.476,1.348,10.237,4.044c2.761,2.696,4.142,6.057,4.142,10.081C60.891,104.117,59.51,107.478,56.749,110.173z
			 M53.369,93.079c-1.862-1.927-4.148-2.892-6.857-2.892c-2.709,0-4.995,0.964-6.857,2.892c-1.863,1.928-2.793,4.266-2.793,7.014
			c0,2.749,0.931,5.086,2.793,7.014c1.862,1.928,4.148,2.892,6.857,2.892c2.709,0,4.995-0.964,6.857-2.892
			c1.863-1.928,2.794-4.266,2.794-7.014C56.163,97.344,55.232,95.007,53.369,93.079z"/>
		<path d="M72.848,107.692c1.25,1.459,2.943,2.188,5.079,2.188c2.136,0,3.83-0.729,5.08-2.188s1.875-3.438,1.875-5.939V86.631h4.61
			v15.317c0,3.934-1.081,6.962-3.243,9.085c-2.163,2.123-4.937,3.185-8.323,3.185s-6.161-1.062-8.322-3.185
			c-2.163-2.123-3.243-5.151-3.243-9.085V86.631h4.61v15.122C70.972,104.254,71.598,106.233,72.848,107.692z"/>
		<path d="M117.196,86.631h4.611v27.313h-5.002l-15.473-19.928v19.928h-4.611V86.631h4.611l15.864,20.397V86.631z"/>
		<path d="M150.057,90.207c2.631,2.384,3.947,5.699,3.947,9.944c0,4.247-1.277,7.607-3.829,10.082
			c-2.553,2.475-6.46,3.712-11.723,3.712h-9.065V86.631h9.378C143.662,86.631,147.426,87.823,150.057,90.207z M149.354,100.269
			c0-6.252-3.583-9.378-10.746-9.378h-4.611v18.716h5.119c3.308,0,5.842-0.787,7.6-2.363
			C148.475,105.667,149.354,103.342,149.354,100.269z"/>
		<path d="M170.649,92.219l-9.573,21.725h-4.923l12.035-27.313h4.923l12.035,27.313h-4.923L170.649,92.219z"/>
		<path d="M197.102,90.852v23.093h-4.61V90.852h-8.284v-4.22h21.178v4.22H197.102z"/>
		<path d="M210.387,86.631h4.611v27.313h-4.611V86.631z"/>
		<path d="M245.436,110.173c-2.761,2.697-6.173,4.045-10.237,4.045c-4.063,0-7.477-1.348-10.237-4.045
			c-2.762-2.695-4.142-6.056-4.142-10.081c0-4.024,1.38-7.385,4.142-10.081c2.761-2.696,6.174-4.044,10.237-4.044
			c4.064,0,7.476,1.348,10.237,4.044c2.761,2.696,4.142,6.057,4.142,10.081C249.578,104.117,248.197,107.478,245.436,110.173z
			 M242.056,93.079c-1.862-1.927-4.148-2.892-6.857-2.892c-2.709,0-4.996,0.964-6.857,2.892c-1.863,1.928-2.794,4.266-2.794,7.014
			c0,2.749,0.931,5.086,2.794,7.014c1.862,1.928,4.148,2.892,6.857,2.892c2.709,0,4.995-0.964,6.857-2.892s2.794-4.266,2.794-7.014
			C244.85,97.344,243.918,95.007,242.056,93.079z"/>
		<path d="M275.875,86.631h4.611v27.313h-5.001l-15.473-19.928v19.928H255.4V86.631h4.611l15.864,20.397V86.631z"/>
	</g>
</g>
<g id="Link">
</g>
</svg>
