<?xml version="1.0" encoding="utf-8"?>
<!-- Generator: Adobe Illustrator 19.0.0, SVG Export Plug-In . SVG Version: 6.00 Build 0)  -->
<svg version="1.1" id="Layer_1" xmlns="http://www.w3.org/2000/svg" xmlns:xlink="http://www.w3.org/1999/xlink" x="0px" y="0px"
	 viewBox="0 0 141.7188 48.5005" enable-background="new 0 0 141.7188 48.5005" xml:space="preserve">
<g id="XMLID_15_">
	<path id="XMLID_16_" fill="#5C247B" d="M134.8809,5.4707h-0.5703v1.1524h0.584c0.6162,0,0.8994-0.1387,0.8994-0.5586
		C135.794,5.6329,135.502,5.4707,134.8809,5.4707z"/>
	<path id="XMLID_18_" fill="#5C247B" d="M116.1396,26.4478v5.043c0,0,5.9209,0.9863,6.0302-2.5215
		C122.2812,25.4595,116.1396,26.4478,116.1396,26.4478z"/>
	<path id="XMLID_19_" fill="#5C247B" d="M121.7315,19.2129c0.1103-3.5097-5.5919-2.5215-5.5919-2.5215v5.043
		C116.1396,21.7344,121.6221,22.7207,121.7315,19.2129z"/>
	<path id="XMLID_20_" fill="#5C247B" d="M89.3164,16.4571c0,0-5.1474-0.4434-5.2832,8.0234
		c-0.1279,7.897,5.2217,7.3228,5.2217,7.3228s4.8389,0.5742,4.9033-7.5787C94.2207,16.0762,89.3164,16.4571,89.3164,16.4571z"/>
	<path id="XMLID_28_" fill="#5C247B" d="M24.6045,0C10.8106,0,0,10.2774,0,22.9454v25.5551h117.2295
		c12.6738,0,24.4893-9.4179,24.4893-22.9453V0.002L24.6045,0z M42.8877,37.0454l-5.6006-0.0039l-1.0664-19.0727L31.919,37.0454
		h-9.6046l-2.9678-18.309l-2.292,18.309h-6.874l2.4531-25.5473h14.791l1.5059,16.4458l3.541-16.4458h12.8184l2.0254,25.5473H42.8877
		z M66.1768,37.0454h-9.9151V27.397l-9.0019-15.8989l10.7519-0.0039l5.251,9.959l5.2246-9.9551h7.4151l-9.6885,16.1177
		L66.1768,37.0454z M89.8018,37.4107h-0.1221c-11.21,0.7695-18.4219-8.5508-15.1328-17.7603
		c3.2891-9.2109,15.1328-8.6621,15.1328-8.6621h0.1221c0,0,10.4033-0.4394,13.4717,8.2227
		C106.3223,27.813,99.8242,37.4107,89.8018,37.4107z M126.4473,35.5474c-6.1397,2.8496-19.7373,1.207-19.7373,1.207V11.5371
		c0,0,21.6006-2.1933,23.9023,4.1661c1.0127,2.7988,0.2442,4.6621-0.9345,5.8711c-0.4219,0.4316-0.8975,0.7812-1.3614,1.0605
		c-0.2715,0.1621-0.541,0.3008-0.7929,0.418c-0.8506,0.3945-1.5157,0.5449-1.5157,0.5449s1.5656,0.5273,1.8594,0.6738
		c0.293,0.1446,0.6016,0.3164,0.9082,0.5196c0.2988,0.1992,0.5938,0.4257,0.875,0.6899c0.3604,0.3359,0.6934,0.7305,0.9619,1.1855
		C132.037,29.0767,132.586,32.6978,126.4473,35.5474z M136.9688,8.8575c-0.5742,0.5605-1.3036,0.8671-2.0663,0.8671
		c-0.7686,0-1.4912-0.3066-2.0498-0.8671c-0.5498-0.5508-0.8506-1.2715-0.8506-2.0391c0-0.7715,0.3086-1.5078,0.875-2.0762
		c0.5342-0.5429,1.2402-0.8359,2.0255-0.8359c0.7959,0,1.5166,0.3008,2.0742,0.8594c0.5439,0.5449,0.8349,1.2734,0.8349,2.0527
		C137.8115,7.6114,137.5204,8.3243,136.9688,8.8575z"/>
	<path id="XMLID_43_" fill="#5C247B" d="M134.9024,4.2559c-0.6875,0-1.3125,0.252-1.7813,0.7305
		c-0.5029,0.5-0.7705,1.1504-0.7705,1.832c0,0.6719,0.2676,1.3047,0.7539,1.7969c0.4854,0.4941,1.125,0.7558,1.7901,0.7558
		c0.6904,0,1.3291-0.2617,1.83-0.7558c0.4777-0.4688,0.7471-1.0938,0.7471-1.7813c0-0.6972-0.2607-1.3476-0.7383-1.8242
		C136.2403,4.5157,135.6074,4.2559,134.9024,4.2559z M136.3369,8.4297h-0.623l-0.6973-1.4433h-0.7061v1.4433h-0.5586V5.1075h1.2304
		c0.9239,0,1.3868,0.291,1.3868,0.916c0,0.4609-0.292,0.8008-0.7764,0.8828L136.3369,8.4297z"/>
</g>
</svg>
