<?xml version="1.0" encoding="UTF-8" standalone="no"?>
<!-- Created with Inkscape (http://www.inkscape.org/) -->
<svg xmlns:dc="http://purl.org/dc/elements/1.1/" xmlns:cc="http://creativecommons.org/ns#" xmlns:rdf="http://www.w3.org/1999/02/22-rdf-syntax-ns#" xmlns:svg="http://www.w3.org/2000/svg" xmlns="http://www.w3.org/2000/svg" xmlns:sodipodi="http://sodipodi.sourceforge.net/DTD/sodipodi-0.dtd" xmlns:inkscape="http://www.inkscape.org/namespaces/inkscape" id="svg2" version="1.1" inkscape:version="0.48.2 r9819" width="200" height="100.19465" sodipodi:docname="media_new_itv_logo.jpg">
  <metadata id="metadata8">
    <rdf:RDF>
      <cc:Work rdf:about="">
        <dc:format>image/svg+xml</dc:format>
        <dc:type rdf:resource="http://purl.org/dc/dcmitype/StillImage"/>
        <dc:title/>
      </cc:Work>
    </rdf:RDF>
  </metadata>
  <defs id="defs6"/>
  <sodipodi:namedview pagecolor="#ffffff" bordercolor="#666666" borderopacity="1" objecttolerance="10" gridtolerance="10" guidetolerance="10" inkscape:pageopacity="0" inkscape:pageshadow="2" inkscape:window-width="1920" inkscape:window-height="1028" id="namedview4" showgrid="false" fit-margin-left="0.1" fit-margin-top="0.1" fit-margin-bottom="0.1" fit-margin-right="0.1" inkscape:zoom="5.8948449" inkscape:cx="148.81502" inkscape:cy="37.933661" inkscape:window-x="-8" inkscape:window-y="-8" inkscape:window-maximized="1" inkscape:current-layer="svg2">
    <inkscape:grid type="xygrid" id="grid2998" empspacing="5" visible="true" enabled="true" snapvisiblegridlinesonly="true"/>
  </sodipodi:namedview>
  <g id="g3030" transform="matrix(0.34266387,0,0,0.34266387,-15.940546,-131.16815)">
    <path style="fill:#00beca;fill-opacity:1;stroke:none" d="m 47.801436,422.39499 c 0,-20.97792 14.862423,-38.14518 38.744954,-38.14518 25.14388,0 38.625,18.01001 38.625,39.16479 0,23.2638 -17.03438,37.36549 -38.44507,37.36549 -23.303206,0 -38.924884,-15.89551 -38.924884,-38.3851 z" id="path3018" inkscape:connector-curvature="0" sodipodi:nodetypes="ccccc"/>
    <path style="fill:#00beca;fill-opacity:1;stroke:none" d="m 48,492.64501 c 0,-3.57073 2.002309,-6.1518 6,-6.1518 l 65.2723,0 c 3.44818,0 5.7277,2.73283 5.7277,6.09155 l 0,100.06645 c 0,17.06099 9.71449,36.90334 39.69604,36.90334 29.19892,0 44.30396,-18.16849 44.30396,-55.2632 l 0,-7.79814 31,59 4,20 c 0,0 -30.41502,29.40373 -85.54154,29.40373 C 131.09705,674.89694 48,670.40837 48,579.49321 z" id="path3020" inkscape:connector-curvature="0" sodipodi:nodetypes="ccccccccccccc"/>
    <path style="fill:#8c7b11;fill-opacity:1;stroke:none" d="m 244,645.49321 31,-80 10,-10 0,14 c 0,33.67375 16.33605,59.58152 58.60656,59.58152 38.54378,0 65.6745,-21.8349 65.6745,-55.71836 0,-17.22249 -8.33677,-30.88801 -8.33677,-30.88801 l 43.72302,21.83153 3.83269,53.19332 c 0,0 -29.1163,57.10384 -111.19099,57.10384 C 273.21943,674.59705 244,645.49321 244,645.49321 z" id="path3024" inkscape:connector-curvature="0" sodipodi:nodetypes="ccccccccccc"/>
    <path style="fill:#000000;fill-opacity:1;stroke:none" d="m 244,645.49321 c 0,0 -35,-26.74653 -35,-76.75901 l 0,-143.24099 c 0,-11.51805 7.43235,-21.49932 38.41957,-21.49932 33.86428,0 37.58043,13.18152 37.58043,23.07085 l 0,59.42847 60,0 c 4.3293,0 6,2.5306 6,6.54022 l 0,35.45978 c 0,3.35305 -1.36798,6 -5.3036,6 l -39.6964,0 c -10.29405,0 -21,-4 -21,-4 l 0,24 c 0,29.92446 -7.73252,60.49107 -41,91 z" id="path3022" inkscape:connector-curvature="0" sodipodi:nodetypes="cccccccccccccc"/>
    <path style="fill:#ffab00;fill-opacity:1;stroke:none" d="m 448.5,617.49321 9.52732,-104.67543 4.3046,-18.21507 c 0,0 19.01379,27.72197 67.45301,116.903 30.76369,-55.93601 50.38301,-122.77677 50.38301,-122.77677 1.37747,-4.56897 5.02528,-5.67513 10.30561,-4.2834 l 33.20698,10.2632 c 4.0318,1.43878 6.21917,3.03158 3.94891,10.52817 -27.62063,80.38034 -70.87179,146.68547 -70.87179,146.68547 -8.32694,12.34014 -16.80925,22.81654 -44.91212,22.81654 -22.67268,0 -30.56873,-7.72236 -38.46582,-19.50857 z" id="path3028" inkscape:connector-curvature="0" sodipodi:nodetypes="cccccccccccc"/>
    <path style="fill:#c80063;fill-opacity:1;stroke:none" d="m 448.5,617.49321 -51.76793,-81.57153 c -3.10695,-5.81387 -5.4749,-9.33964 -5.4749,-16.24446 0.04,-10.14929 5.31369,-17.48763 23.1957,-28.69122 3.86409,-2.53909 17.79081,-8.07451 29.07489,-8.07451 15.21703,0 26.56968,15.74989 26.56968,48.70109 0,53.61539 -21.59744,85.88063 -21.59744,85.88063 z" id="path3026" inkscape:connector-curvature="0" sodipodi:nodetypes="ccccccc"/>
  </g>
</svg>