<svg xmlns="http://www.w3.org/2000/svg" viewBox="0 0 478.99 109.97"><defs><style>.cls-1{fill:none;}.cls-2{fill:#231f20;}.cls-3{fill:#ff5f00;}.cls-4{fill:#eb001b;}.cls-5{fill:#f79e1b;}</style></defs><title>mc_hrz_rgb_pos</title><g id="Layer_2" data-name="Layer 2"><g id="Layer_1-2" data-name="Layer 1"><rect class="cls-1" width="478.99" height="109.97"/><path class="cls-2" d="M216.39,67.11v-15c0-5.66-3.61-9.47-9.42-9.52a9.27,9.27,0,0,0-8.41,4.26,8.79,8.79,0,0,0-7.91-4.26,7.92,7.92,0,0,0-7,3.56v-3h-5.21V67.11h5.26V53.84c0-4.16,2.3-6.36,5.86-6.36s5.21,2.25,5.21,6.31V67.11H200V53.84c0-4.16,2.4-6.36,5.86-6.36s5.26,2.25,5.26,6.31V67.11Zm77.83-23.94h-8.51V35.91h-5.26v7.26h-4.86v4.76h4.86V58.84c0,5.56,2.15,8.87,8.31,8.87a12.24,12.24,0,0,0,6.51-1.85l-1.5-4.46a9.62,9.62,0,0,1-4.61,1.35c-2.6,0-3.46-1.6-3.46-4V47.93h8.51Zm44.43-.6a7.06,7.06,0,0,0-6.31,3.51V43.17h-5.16V67.11h5.21V53.69c0-4,1.7-6.16,5.11-6.16a8.49,8.49,0,0,1,3.26.6l1.6-4.91a11.13,11.13,0,0,0-3.71-.65Zm-67.17,2.5a17.9,17.9,0,0,0-9.77-2.5c-6.06,0-10,2.91-10,7.66,0,3.91,2.9,6.31,8.26,7.06l2.45.35c2.85.4,4.21,1.15,4.21,2.5,0,1.85-1.9,2.91-5.46,2.91a12.76,12.76,0,0,1-8-2.5L250.8,64.6a17.27,17.27,0,0,0,10.37,3.11c6.91,0,10.92-3.26,10.92-7.81,0-4.21-3.16-6.41-8.36-7.16l-2.45-.35c-2.25-.3-4.06-.75-4.06-2.35,0-1.75,1.7-2.8,4.56-2.8a15.43,15.43,0,0,1,7.46,2.05ZM411,42.57a7.06,7.06,0,0,0-6.31,3.51V43.17h-5.16V67.11h5.21V53.69c0-4,1.7-6.16,5.11-6.16a8.49,8.49,0,0,1,3.26.6l1.6-4.91a11.13,11.13,0,0,0-3.71-.65ZM343.91,55.14c0,7.26,5.06,12.57,12.77,12.57a12.54,12.54,0,0,0,8.61-2.86l-2.5-4.21a10.52,10.52,0,0,1-6.26,2.15c-4.16,0-7.21-3.06-7.21-7.66s3.06-7.61,7.21-7.66a10.52,10.52,0,0,1,6.26,2.15l2.5-4.21a12.54,12.54,0,0,0-8.61-2.86c-7.71,0-12.77,5.31-12.77,12.57Zm48.78,0v-12h-5.21v2.91a9.08,9.08,0,0,0-7.56-3.51c-6.71,0-12,5.26-12,12.57s5.26,12.57,12,12.57a9.08,9.08,0,0,0,7.56-3.51v2.9h5.21Zm-19.38,0c0-4.21,2.75-7.66,7.26-7.66,4.31,0,7.21,3.31,7.21,7.66s-2.9,7.66-7.21,7.66c-4.51,0-7.26-3.46-7.26-7.66ZM310.45,42.57c-7,0-11.92,5.11-11.92,12.57,0,7.61,5.11,12.57,12.27,12.57a14.55,14.55,0,0,0,9.82-3.36l-2.55-3.86a11.41,11.41,0,0,1-7,2.5c-3.36,0-6.41-1.55-7.16-5.86h17.78c.05-.65.1-1.3.1-2,0-7.46-4.66-12.57-11.37-12.57Zm-.1,4.66c3.36,0,5.51,2.1,6.06,5.81H304c.55-3.46,2.65-5.81,6.36-5.81ZM441,55.14V33.55h-5.21V46.07a9.08,9.08,0,0,0-7.56-3.51c-6.71,0-12,5.26-12,12.57s5.26,12.57,12,12.57a9.08,9.08,0,0,0,7.56-3.51v2.9H441Zm6.09,9.76a1.53,1.53,0,0,1,.6.12,1.57,1.57,0,0,1,.49.33,1.53,1.53,0,0,1,.33.48,1.49,1.49,0,0,1,0,1.18,1.54,1.54,0,0,1-.33.48,1.6,1.6,0,0,1-.49.33,1.5,1.5,0,0,1-.6.12,1.55,1.55,0,0,1-1.44-.93,1.5,1.5,0,0,1,0-1.18,1.52,1.52,0,0,1,.82-.81A1.57,1.57,0,0,1,447.11,64.9Zm0,2.7a1.13,1.13,0,0,0,.46-.09,1.21,1.21,0,0,0,.37-.25,1.19,1.19,0,0,0,0-1.68,1.18,1.18,0,0,0-.37-.25,1.15,1.15,0,0,0-.46-.09,1.19,1.19,0,0,0-.47.09,1.19,1.19,0,0,0-.38,1.93,1.19,1.19,0,0,0,.38.25A1.18,1.18,0,0,0,447.11,67.6Zm.09-1.9a.64.64,0,0,1,.42.12.4.4,0,0,1,.15.33.38.38,0,0,1-.12.29.56.56,0,0,1-.33.14l.46.53h-.36l-.43-.53h-.14v.53h-.3V65.71Zm-.35.26v.38h.35a.34.34,0,0,0,.19,0,.16.16,0,0,0,.07-.14.16.16,0,0,0-.07-.14.34.34,0,0,0-.19,0ZM421.64,55.14c0-4.21,2.75-7.66,7.26-7.66,4.31,0,7.21,3.31,7.21,7.66s-2.9,7.66-7.21,7.66c-4.51,0-7.26-3.46-7.26-7.66Zm-175.9,0v-12h-5.21v2.91A9.08,9.08,0,0,0,233,42.57c-6.71,0-12,5.26-12,12.57s5.26,12.57,12,12.57a9.08,9.08,0,0,0,7.56-3.51v2.9h5.21Zm-19.38,0c0-4.21,2.75-7.66,7.26-7.66,4.31,0,7.21,3.31,7.21,7.66s-2.9,7.66-7.21,7.66C229.11,62.8,226.36,59.35,226.36,55.14Z"/><g id="_Group_" data-name="&lt;Group&gt;"><rect class="cls-3" x="80.46" y="26.68" width="31.5" height="56.61"/><path id="_Path_" data-name="&lt;Path&gt;" class="cls-4" d="M82.46,55a35.94,35.94,0,0,1,13.75-28.3,36,36,0,1,0,0,56.61A35.94,35.94,0,0,1,82.46,55Z"/><path class="cls-5" d="M154.46,55a36,36,0,0,1-58.25,28.3,36,36,0,0,0,0-56.61A36,36,0,0,1,154.46,55Z"/><path class="cls-5" d="M151,77.29V76.13h.47V75.9H150.3v.24h.47v1.16Zm2.31,0v-1.4H153l-.42,1-.42-1h-.37v1.4H152V76.24l.39.91h.27l.39-.91v1.06Z"/></g></g></g></svg>