<svg xmlns="http://www.w3.org/2000/svg" width="88" height="25" viewBox="0 0 88 25">
  <g fill="none" fill-rule="evenodd">
    <path fill="#0F0F0F" d="M9.31794286 8.1709802C7.21935238 8.1709802 5.62864762 8.92433299 4.7704381 10.0866487L4.7704381 8.61057397 0 8.61057397 0 24.3175656 4.7704381 24.3175656 4.7704381 15.7417618C4.7704381 13.5106785 5.97897143 12.5056562 7.72807619 12.5056562 9.25424762 12.5056562 10.4946286 13.4171303 10.4946286 15.3650854L10.4946286 24.3175656 15.2650667 24.3175656 15.2650667 14.6738221C15.2650667 10.4326943 12.5303619 8.1709802 9.31794286 8.1709802M21.9111619 14.8302877C22.3570286 13.2283782 23.5655619 12.3491906 25.3783619 12.3491906 26.8089905 12.3491906 28.2404571 13.0081674 28.7483429 14.8302877L21.9111619 14.8302877zM25.4093714 8.1709802C20.3849905 8.1709802 16.9496381 11.7837621 16.9496381 16.4644837 16.9496381 21.1443774 20.3212952 24.7571594 25.7596952 24.7571594 28.7810286 24.7571594 31.1344 23.657761 32.692419 21.5218817L28.8757333 19.3545437C28.2404571 20.0449791 27.1274667 20.5474902 25.8233905 20.5474902 24.0734476 20.5474902 22.6109714 19.9828896 22.0067048 18.3486935L33.2966857 18.3486935C33.4240762 17.7526342 33.4877714 17.1242883 33.4877714 16.4644837 33.4877714 11.7208448 30.052419 8.1709802 25.4093714 8.1709802z"/>
    <polyline fill="#0F0F0F" points="55.135 8.611 52.251 8.611 49.961 17.029 47.481 8.611 43.028 8.611 40.548 17.029 38.257 8.611 33.169 8.611 38.257 24.318 42.71 24.318 45.254 15.93 47.798 24.318 52.251 24.318 55.135 15.413 55.135 8.611"/>
    <path fill="#6E6ED6" d="M78.0870095 19.4522312C75.195581 19.4522312 73.7833905 16.9694784 73.7833905 12.3789936 73.7833905 7.78768093 75.195581 5.30492818 78.0870095 5.30492818 80.9792762 5.30492818 82.3906286 7.78768093 82.3906286 12.3789936 82.3906286 16.9694784 80.9792762 19.4522312 78.0870095 19.4522312zM78.0870095 0C71.8557714 0 68.2754286 5.03339003 68.2754286 12.3789936 68.2754286 19.7237693 71.8557714 24.7571594 78.0870095 24.7571594 84.3190857 24.7571594 87.8994286 19.7237693 87.8994286 12.3789936 87.8994286 5.03339003 84.3190857 0 78.0870095 0zM60.5490286.476019617C59.6816 2.4297697 57.9467429 3.4927422 55.1349333 3.4927422L55.1349333 8.63458192C55.4710095 8.63458192 55.7886476 8.62630331 56.0895238 8.61057397L56.0912 8.61057397C56.5865143 8.58325458 57.0382476 8.53358297 57.4539429 8.45659197 58.6465524 8.2355533 59.5382857 7.79182023 60.271619 7.02356596L60.271619 24.2811397 65.8969143 24.2811397 65.8969143.476019617 60.5490286.476019617"/>
  </g>
</svg>
