<svg xmlns="http://www.w3.org/2000/svg" width="259" height="101" viewBox="0 0 259 101">
  <path fill="#00E3CA" fill-rule="evenodd" d="M42.0022647,31 C52.147139,31 58.0013225,35.967027 58.0013225,43.7578378 C58.0013225,51.1097297 52.4999244,57.0502703 42.5068612,57.0502703 L38.2269755,57.0502703 L30,67.6443243 L30,31 L42.0022647,31 Z M42.9109706,49.9902703 C46.8980391,49.9902703 49.6744002,47.8481081 49.6744002,44.0497297 C49.6744002,40.2518919 46.8980391,38.2551351 42.8601868,38.2551351 L38.2269755,38.2551351 L38.2269755,49.9902703 L42.9109706,49.9902703 Z M74.3071361,66.7189189 C66.0801606,66.7189189 59.6203533,60.9248649 59.6203533,52.5491892 C59.6203533,44.1259459 66.0801606,38.38 74.3071361,38.38 C82.6351389,38.38 88.9944592,44.1259459 88.9944592,52.5491892 C88.9944592,60.8756757 82.6351389,66.7189189 74.3071361,66.7189189 Z M74.3071361,45.3918919 C70.9764752,45.3918919 67.7960047,47.9724324 67.7960047,52.5491892 C67.7960047,57.1264865 70.9764752,59.707027 74.3071361,59.707027 C77.6383372,59.707027 80.8679708,57.0778378 80.8679708,52.5491892 C80.8679708,47.9724324 77.6383372,45.3918919 74.3071361,45.3918919 Z M100.908068,64.0281081 L100.908068,75.3216216 L92.832904,75.3216216 L92.832904,39.0616216 L97.8842713,39.0616216 L99.6508992,41.9643243 C101.706563,39.8389189 105.192816,38.38 108.603435,38.38 C115.113486,38.38 122.055739,43.9313514 122.055739,52.5491892 C122.055739,61.2167568 115.31554,66.7189189 108.754165,66.7189189 C106.052359,66.7189189 102.978859,65.692973 100.908068,64.0281081 Z M107.318172,45.3918919 C103.532618,45.3918919 100.807581,48.3621622 100.807581,52.5491892 C100.807581,56.7367568 103.532618,59.707027 107.267929,59.707027 C111.103186,59.707027 113.879547,56.6394595 113.879547,52.5010811 C113.879547,48.3621622 111.103186,45.3918919 107.318172,45.3918919 Z M134.020348,64.0275676 L134.020348,75.3216216 L125.945724,75.3216216 L125.945724,39.0616216 L130.996551,39.0616216 L132.763179,41.9637838 C134.819383,39.8389189 138.305636,38.38 141.715174,38.38 C148.225765,38.38 155.168559,43.9313514 155.168559,52.5491892 C155.168559,61.2167568 148.42836,66.7189189 141.866985,66.7189189 C139.165179,66.7189189 136.091679,65.692973 134.020348,64.0275676 Z M140.430992,45.3918919 C136.645979,45.3918919 133.919861,48.3621622 133.919861,52.5491892 C133.919861,56.7367568 136.645979,59.707027 140.380749,59.707027 C144.216546,59.707027 146.991827,56.6394595 146.991827,52.5010811 C146.991827,48.3621622 144.216546,45.3918919 140.430992,45.3918919 Z M171.478803,66.718973 C163.554909,66.718973 158.809865,61.8984324 158.809865,55.0816757 L158.809865,39.0616757 L166.88611,39.0616757 L166.88611,55.0816757 C166.88611,58.1000541 168.551171,59.7070811 171.478803,59.7070811 C174.456678,59.7070811 176.222766,58.1000541 176.222766,55.033027 L176.222766,39.0616757 L184.29847,39.0616757 L184.29847,55.0816757 C184.29847,61.8984324 179.45294,66.718973 171.478803,66.718973 Z M188.711475,66.0368649 L188.711475,31.0001081 L196.786639,31.0001081 L196.786639,66.0368649 L188.711475,66.0368649 Z M215.312677,66.7189189 C207.086242,66.7189189 200.625894,60.9248649 200.625894,52.5491892 C200.625894,44.1259459 207.086242,38.38 215.312677,38.38 C223.64068,38.38 230,44.1259459 230,52.5491892 C230,60.8756757 223.64068,66.7189189 215.312677,66.7189189 Z M215.312677,45.3918919 C211.982016,45.3918919 208.802086,47.9724324 208.802086,52.5491892 C208.802086,57.1264865 211.982016,59.707027 215.312677,59.707027 C218.644418,59.707027 221.874592,57.0778378 221.874592,52.5491892 C221.874592,47.9724324 218.644418,45.3918919 215.312677,45.3918919 Z"/>
</svg>
