<?xml version="1.0" encoding="utf-8"?>
<!-- Generator: Adobe Illustrator 19.0.0, SVG Export Plug-In . SVG Version: 6.00 Build 0)  -->
<svg version="1.1" id="layer" xmlns="http://www.w3.org/2000/svg" xmlns:xlink="http://www.w3.org/1999/xlink" x="0px" y="0px"
	 viewBox="-153 -46 652 652" style="enable-background:new -153 -46 652 652;" xml:space="preserve">
<style type="text/css">
	.st0{fill:#FF730B;}
	.st1{fill:#173647;}
</style>
<path class="st0" d="M-55.4,300.1h-20.7l-3.6,11.6h27.8L-55.4,300.1z M-0.2,311.7L-11,278.2l7-21.6l-25.9-18.9l-18.4,13.2h-34.9
	l-18.2-13.3l-25.9,18.9l7,21.7l-10.9,33.5h34l-2.6-8.4l34-24.8l34,25l-2.6,8.4L-0.2,311.7L-0.2,311.7z"/>
<path class="st1" d="M50.5,270.8c0,0-9.1-1-12.8-1c-5.4,0-8.3,1.9-8.3,5.8c0,4.1,2.3,5.2,10,7.2c9.3,2.6,12.7,5,12.7,12.7
	c0,9.7-6.1,14-14.9,14c-5.8,0-14.5-1.8-14.5-1.8l0.8-5.8c0,0,8.8,1.2,13.3,1.2c5.6,0,8-2.5,8-7.1c0-3.8-2.1-5-8.8-6.7
	c-9.6-2.5-13.7-5.4-13.7-13.1c0-8.9,6-12.7,14.8-12.7c5.7,0,14.1,1.6,14.1,1.6L50.5,270.8z M69.8,263.8H82l10,34.7l10-34.7h12v45.3
	h-6.5v-38.8h-0.6l-11.1,36.2h-7.5L77,270.3h-0.6v38.8h-6.5L69.8,263.8L69.8,263.8z M225.1,263.8h33.6v6.5h-12.9v38.8H238v-38.8
	h-12.9V263.8z M289.4,263.8c8.8,0,13.6,3.5,13.6,11.8c0,5.4-1.7,8.2-5.3,10.1c3.9,1.6,6.3,4.5,6.3,10.6c0,9.1-5.6,12.8-14.1,12.8
	h-17v-45.3H289.4L289.4,263.8z M279.5,270.3v12.9h9.8c4.4,0,6.3-2.3,6.3-6.7c0-4.3-2.2-6.2-6.6-6.2
	C289,270.3,279.5,270.3,279.5,270.3z M279.5,289.7v12.9h10.1c4.5,0,7.1-1.3,7.1-6.6c0-5-3.8-6.3-7.2-6.3H279.5z M322.2,263.8h27.2
	v6.5h-20.7v12.9h16.8v6.5h-16.8v12.9h20.7v6.5h-27.2V263.8z M375.6,263.8H390l11,45.3h-7.2l-3.2-12.9h-15.3l-3.2,12.9h-7.2
	L375.6,263.8z M376.7,289.7h12.4l-4.5-19.4h-3.2L376.7,289.7z M424.4,294.9v14.2h-7.8v-45.3h17.2c9.8,0,15,5.8,15,15.7
	c0,6.3-2.6,12.3-7.2,14.5l7.4,15.1h-7.9l-6.5-14.2C434.6,294.9,424.4,294.9,424.4,294.9z M433.9,270.3h-9.4v19.4h9.6
	c5.4,0,7.5-5.2,7.5-9.8C441.5,274.8,439,270.3,433.9,270.3z M140.8,263.8h14.4l11,45.3H159l-3.2-12.9h-15.3l-3.2,12.9H130
	L140.8,263.8z M141.9,289.7h12.4l-4.7-19.4h-3.2L141.9,289.7z M188.9,294.9v14.2h-6.5v-45.3h16.7c9.8,0,15,5.8,15,15.7
	c0,6.3-2.6,12.3-7.2,14.5l7.4,15.1h-7.9l-6.5-14.2C199.9,294.9,188.9,294.9,188.9,294.9z M199.1,270.3h-10.2v19.4h10.4
	c5.4,0,7.5-5.2,7.5-9.8C206.7,274.8,204.3,270.3,199.1,270.3z M460.3,308.6h-0.9v-4.8h-1.7V303h4.1v0.8h-1.6V308.6L460.3,308.6z
	 M465.4,308.6l-1.6-4.7l0,0c0,0.6,0,1.3,0,1.9v2.7h-0.8V303h1.3l1.6,4.4l0,0l1.6-4.4h1.3v5.6h-0.9v-2.7c0-0.3,0-0.6,0-1
	c0-0.4,0-0.6,0-0.8l0,0l-1.7,4.7L465.4,308.6L465.4,308.6z"/>
</svg>
