<?xml version="1.0" encoding="UTF-8" standalone="no"?>
<svg
   xmlns:dc="http://purl.org/dc/elements/1.1/"
   xmlns:cc="http://creativecommons.org/ns#"
   xmlns:rdf="http://www.w3.org/1999/02/22-rdf-syntax-ns#"
   xmlns:svg="http://www.w3.org/2000/svg"
   xmlns="http://www.w3.org/2000/svg"
   xmlns:sodipodi="http://sodipodi.sourceforge.net/DTD/sodipodi-0.dtd"
   xmlns:inkscape="http://www.inkscape.org/namespaces/inkscape"
   viewBox="0 0 539.99603 66.958542"
   version="1.1"
   id="svg36"
   sodipodi:docname="atlassian-logo-gradient-horizontal-blue.svg"
   width="539.99603"
   height="66.958542"
   inkscape:version="0.92.1 r15371">
  <metadata
     id="metadata40">
    <rdf:RDF>
      <cc:Work
         rdf:about="">
        <dc:format>image/svg+xml</dc:format>
        <dc:type
           rdf:resource="http://purl.org/dc/dcmitype/StillImage" />
        <dc:title>atlassian-logo-gradient-horizontal-blue</dc:title>
      </cc:Work>
    </rdf:RDF>
  </metadata>
  <sodipodi:namedview
     pagecolor="#ffffff"
     bordercolor="#666666"
     borderopacity="1"
     objecttolerance="10"
     gridtolerance="10"
     guidetolerance="10"
     inkscape:pageopacity="0"
     inkscape:pageshadow="2"
     inkscape:window-width="780"
     inkscape:window-height="480"
     id="namedview38"
     showgrid="false"
     fit-margin-top="0"
     fit-margin-left="0"
     fit-margin-right="0"
     fit-margin-bottom="0"
     inkscape:zoom="0.81666667"
     inkscape:cx="358.15928"
     inkscape:cy="25.92"
     inkscape:window-x="0"
     inkscape:window-y="0"
     inkscape:window-maximized="0"
     inkscape:current-layer="svg36" />
  <defs
     id="defs9">
    <style
       id="style2">.cls-1{fill:url(#linear-gradient);}.cls-2{fill:#2684ff;}.cls-3{fill:#0052cc;}</style>
    <linearGradient
       id="linear-gradient"
       x1="28.540001"
       y1="69.489998"
       x2="11.41"
       y2="99.169998"
       gradientUnits="userSpaceOnUse"
       gradientTransform="translate(-0.0039818,-33.961454)">
      <stop
         offset="0"
         stop-color="#0052cc"
         id="stop4" />
      <stop
         offset="0.92"
         stop-color="#2684ff"
         id="stop6" />
    </linearGradient>
  </defs>
  <title
     id="title11">atlassian-logo-gradient-horizontal-blue</title>
  <path
     style="fill:url(#linear-gradient)"
     inkscape:connector-curvature="0"
     id="path13"
     d="m 19.636018,30.518546 a 1.88,1.88 0 0 0 -3.2,0.35 l -16.2299998,32.46 a 1.94,1.94 0 0 0 1.73,2.81 H 24.536018 a 1.87,1.87 0 0 0 1.74,-1.1 c 4.87,-10 1.92,-25.37 -6.64,-34.52 z"
     class="cls-1" />
  <path
     style="fill:#2684ff"
     inkscape:connector-curvature="0"
     id="path15"
     d="m 31.546018,1.038546 a 42.81,42.81 0 0 0 -2.5,42.27 l 10.95,21.73 a 1.94,1.94 0 0 0 1.73,1.08 h 22.6 a 2,2 0 0 0 1.67,-2.79 l -31.15,-62.29 a 1.83,1.83 0 0 0 -3.3,0 z"
     class="cls-2" />
  <polygon
     style="fill:#0052cc"
     id="polygon17"
     points="509.01,69.6 525.42,100.1 540,100.1 540,45.66 528.4,45.66 528.4,80.79 524.01,70.6 510.83,45.66 492.52,45.66 492.52,100.1 504.12,100.1 504.12,58.58 "
     class="cls-3"
     transform="translate(-0.0039818,-33.961454)" />
  <rect
     style="fill:#0052cc"
     id="rect19"
     height="54.439999"
     width="12.68"
     y="11.698545"
     x="406.05603"
     class="cls-3" />
  <path
     style="fill:#0052cc"
     inkscape:connector-curvature="0"
     id="path21"
     d="m 391.42602,50.038546 c 0,-9.53 -5.05,-14 -19.31,-17.07 -7.87,-1.74 -9.77,-3.48 -9.77,-6 0,-3.15 2.81,-4.48 8,-4.48 6.3,0 12.52,1.91 18.4,4.56 v -12.45 a 41.57,41.57 0 0 0 -18,-3.73 c -14.09,0 -21.38,6.13 -21.38,16.16 0,8 3.73,14.41 18.31,17.23 8.7,1.82 10.53,3.23 10.53,6.13 0,2.9 -1.83,4.64 -8,4.64 a 45,45 0 0 1 -21.13,-5.71 v 13.09 c 4.39,2.15 10.19,4.55 21,4.55 15.24,0 21.29,-6.79 21.29,-16.9"
     class="cls-3" />
  <path
     style="fill:#0052cc"
     inkscape:connector-curvature="0"
     id="path23"
     d="m 338.64602,50.038546 c 0,-9.53 -5,-14 -19.3,-17.07 -7.87,-1.74 -9.78,-3.48 -9.78,-6 0,-3.15 2.82,-4.48 8,-4.48 6.3,0 12.51,1.91 18.39,4.56 v -12.45 a 41.57,41.57 0 0 0 -18,-3.73 c -14.08,0 -21.38,6.13 -21.38,16.16 0,8 3.73,14.41 18.32,17.23 8.7,1.82 10.52,3.23 10.52,6.13 0,2.9 -1.82,4.64 -8,4.64 a 45,45 0 0 1 -21.13,-5.71 v 13.09 c 4.4,2.15 10.2,4.55 21,4.55 15.25,0 21.29,-6.79 21.29,-16.9"
     class="cls-3" />
  <polygon
     style="fill:#0052cc"
     id="polygon25"
     points="210.92,88.33 210.92,45.66 198.16,45.66 198.16,100.1 224.22,100.1 228.32,88.33 "
     class="cls-3"
     transform="translate(-0.0039818,-33.961454)" />
  <polygon
     style="fill:#0052cc"
     id="polygon27"
     points="173.52,100.1 173.52,57.42 188.6,57.42 188.6,45.66 146.67,45.66 146.67,57.42 160.76,57.42 160.76,100.1 "
     class="cls-3"
     transform="translate(-0.0039818,-33.961454)" />
  <path
     style="fill:#0052cc"
     inkscape:connector-curvature="0"
     id="path29"
     d="m 128.16602,11.698546 h -16.72 l -19.000002,54.44 h 14.550002 l 2.7,-9.17 a 36,36 0 0 0 20.3,0 l 2.69,9.17 h 14.5 z m -8.36,35.46 a 24.75,24.75 0 0 1 -7,-1 l 7,-23.76 7,23.76 a 24.8,24.8 0 0 1 -7,1 z"
     class="cls-3" />
  <path
     style="fill:#0052cc"
     inkscape:connector-curvature="0"
     id="path31"
     d="m 269.13602,11.698546 h -16.72 l -19,54.44 h 14.5 l 2.7,-9.17 a 36,36 0 0 0 20.3,0 l 2.69,9.17 h 14.5 z m -8.36,35.46 a 24.69,24.69 0 0 1 -7,-1 l 7,-23.76 7,23.76 a 24.68,24.68 0 0 1 -7,1 z"
     class="cls-3" />
  <path
     style="fill:#0052cc"
     inkscape:connector-curvature="0"
     id="path33"
     d="m 464.41602,11.698546 h -16.72 l -19,54.44 h 14.5 l 2.69,-9.17 a 36,36 0 0 0 20.3,0 l 2.69,9.17 h 14.51 z m -8.36,35.46 a 24.8,24.8 0 0 1 -7,-1 l 7,-23.76 7,23.76 a 24.8,24.8 0 0 1 -7,1 z"
     class="cls-3" />
</svg>
