<?xml version="1.0" encoding="utf-8"?>
<!-- Generator: Adobe Illustrator 19.1.0, SVG Export Plug-In . SVG Version: 6.00 Build 0)  -->
<svg version="1.1" id="Layer_1" xmlns="http://www.w3.org/2000/svg" xmlns:xlink="http://www.w3.org/1999/xlink" x="0px" y="0px"
	 viewBox="0 0 589 86.3" style="enable-background:new 0 0 589 86.3;" xml:space="preserve">
<style type="text/css">
	.st0{fill:#005172;}
	.st1{fill:#3095B4;}
</style>
<g>
	<path class="st0" d="M143.1,13.9l58.8,61l-6.2,6l-9.3-9.6l-9.2,8.9c-4.3,4.1-9.9,6.4-15.9,6.3l0,0c-5.9-0.1-11.5-2.5-15.6-6.8
		c-4.1-4.3-6.3-9.9-6.2-15.8c0.1-5.9,2.5-11.5,6.8-15.6l6.1-5.9l6,6.2l-6.1,5.9c-2.6,2.5-4.1,6-4.2,9.6c-0.1,3.6,1.3,7.1,3.8,9.7
		c2.5,2.6,5.9,4.1,9.6,4.2l0,0c3.7,0.1,7.1-1.3,9.7-3.8l9.2-8.9l-37.3-38.7L143.1,13.9L143.1,13.9z M35.1,15.4v58h-3.6h-2.1v-6.2
		c-2.4,4.5-7,6.8-12.9,6.8C7.2,74,0,66.5,0,56.3c0-10.1,7.2-17.6,16.4-17.6c6.5,0,10.6,3.2,13,7.7v-31H35.1z M29.7,56.3
		c0-7.3-4.8-12.5-12-12.5c-7.1,0-11.7,5.2-11.7,12.5c0,7.4,4.6,12.7,11.7,12.7C24.8,69,29.7,63.7,29.7,56.3z M72.1,58.1
		c0,6.6-4.2,10.7-10.6,10.7c-5.6,0-8.4-3.3-8.4-9.2V39.5h-5.7v20.8c0,8.7,5.2,13.8,12.7,13.8c5.4,0,9.7-2,12-6.5v5.7h1.4h4.3V39.5
		h-5.7V58.1z M109.1,38.7c-5.4,0-9.8,2-12,6.6v-5.8h-2.2h-3.5v33.9h5.7V54.7c0-6.7,4.3-10.7,10.6-10.7c5.7,0,8.4,3.4,8.4,9.4v20h5.7
		V52.7C121.8,43.9,116.6,38.7,109.1,38.7z"/>
	<path class="st1" d="M196.8,29.9c4.1,4.3,6.3,9.9,6.2,15.8c-0.1,5.9-2.5,11.5-6.8,15.6l-0.8,0.7l-6-6.1l0.8-0.7
		c2.6-2.5,4.1-6,4.2-9.6c0.1-3.6-1.3-7.1-3.8-9.7c-1.4-1.5-3-2.6-4.9-3.3v-8.9C189.9,24.6,193.7,26.7,196.8,29.9 M148.7,5.3
		l-4.3,4.1l6,6.2l4.3-4.1c4.1-3.9,10.6-3.8,14.5,0.2c3.9,4.1,3.8,10.6-0.3,14.5l-4.2,4l6,6.2l4.2-4c7.5-7.2,7.7-19.2,0.5-26.7
		C168.2-1.7,156.2-1.9,148.7,5.3 M381.9,66.2c2.2,4.3,7,7.9,14.5,7.9c8.5,0,12.4-4.3,12.4-10.1c0-6.6-5.5-8.8-11.2-10.4
		c-6-1.7-8-2.6-8-5.8c0-2.6,2.2-4.3,5.9-4.3c3.3,0,5.7,1.5,7.4,3.9l3.9-3c-2.4-3.4-6.1-5.5-11.3-5.5c-6.2,0-11.1,3.4-11.1,9.3
		c0,6.4,4.9,8.5,10.2,10.1c5.9,1.7,8.9,2.5,8.9,6.2c0,3.1-2.6,5.1-7.2,5.1c-4.9,0-7.9-2.5-9.8-5.7L381.9,66.2 M423.1,63.1
		c0,8,3.9,11,9.1,11c4.2,0,6.8-1.8,8.3-3.4l-3.1-3.6c-1.1,1-2.3,2-4.6,2c-2.5,0-4-1.4-4-5.9V44.3h9.5v-4.8h-9.5V15.4h-5.7v24.1h-5.2
		v4.8h5.2V63.1 M452.4,73.4h5.7V55.5c0-7.9,3.9-11.4,8.8-11.4c2.1,0,3.6,0.6,4.7,1.3l2.2-5c-1.6-1.1-3.4-1.6-5.9-1.6
		c-4,0-7.8,1.3-9.9,6.5l0.2-5.8h-5.7V73.4z M507.2,54c-0.5-5.8-4.2-10.4-11.3-10.4c-6.5,0-10.8,4.2-11.7,10.4H507.2z M496.7,69.2
		c5.1,0,8.5-2,10.7-4.5l3.5,3.4c-3.1,3.5-7.6,5.9-14.3,5.9c-11.1,0-18.4-7.7-18.4-17.6c0-9.9,7.6-17.7,17.5-17.7
		c10.9,0,17.5,8.4,17,19.6h-28.8C484.8,64.8,489.3,69.2,496.7,69.2 M551.5,54c-0.5-5.8-4.2-10.4-11.3-10.4
		c-6.5,0-10.8,4.2-11.7,10.4H551.5z M541,69.2c5.1,0,8.5-2,10.7-4.5l3.5,3.4c-3.1,3.5-7.6,5.9-14.3,5.9c-11.1,0-18.4-7.7-18.4-17.6
		c0-9.9,7.6-17.7,17.5-17.7c10.9,0,17.5,8.4,17,19.6h-28.8C529.2,64.8,533.6,69.2,541,69.2 M571.7,63.1c0,8,3.9,11,9.1,11
		c4.2,0,6.8-1.8,8.3-3.4l-3.1-3.6c-1.1,1-2.3,2-4.6,2c-2.5,0-4-1.4-4-5.9V44.3h9.5v-4.8h-9.5V15.4h-5.7v24.1h-5.2v4.8h5.2V63.1
		 M240.5,38.7c-6.3,0-10.6,2.4-13,6.9V15.4h-5.7v58h3.6h2.1v-6.2c2.3,4.5,7,6.8,12.9,6.8c9.3,0,16.5-7.5,16.5-17.7
		C256.9,46.3,249.7,38.7,240.5,38.7z M239.2,69c-7.2,0-12-5.3-12-12.7c0-7.3,4.8-12.5,12-12.5c7.1,0,11.7,5.2,11.7,12.5
		C251,63.7,246.4,69,239.2,69z M274.7,44.9v-5.4h-2.4H269v33.9h5.7V55.5c0-7.9,3.9-11.4,8.8-11.4c2.1,0,3.6,0.6,4.7,1.3l2.2-5
		c-1.6-1.1-3.4-1.6-5.9-1.6C280.5,38.8,276.8,40.1,274.7,44.9z M311.4,38.7c-6.5,0-10.9,2.5-13.8,6.6l3.5,3.2
		c2.1-2.9,5.2-4.9,9.9-4.9c5,0,7.9,2.5,7.9,9.1v0.8h-10.6c-7.1,0-12.9,3.3-12.9,10.2c0,7,5.2,10.3,12.5,10.3c5.2,0,8.7-1.4,11-4.6
		v3.9h1h4.3V52.6C324.3,43.2,318.9,38.7,311.4,38.7z M318.9,62.1c0,4.4-4.4,7.3-9.7,7.3c-5.3,0-8.2-2-8.2-5.9c0-4.1,3.4-5.7,7.7-5.7
		h10.2V62.1z M365.1,15.4v30.2c-2.5-4.5-6.6-6.9-13-6.9c-9.2,0-16.4,7.5-16.4,17.6c0,10.2,7.2,17.7,16.5,17.7
		c5.9,0,10.6-2.3,12.9-6.8v6.2h1.6h4v-58H365.1z M353.3,69c-7.1,0-11.7-5.3-11.7-12.7c0-7.3,4.6-12.5,11.7-12.5
		c7.2,0,12,5.2,12,12.5C365.3,63.7,360.5,69,353.3,69z M456.1,48.4h2v-9h-2V48.4z"/>
</g>
</svg>
