<svg xmlns="http://www.w3.org/2000/svg" viewBox="0 0 146.8 120.41"><defs><style>.cls-1{fill:none;}.cls-2{fill:#231f20;}.cls-3{fill:#ff5f00;}.cls-4{fill:#eb001b;}.cls-5{fill:#f79e1b;}</style></defs><title>mc_vrt_rgb_pos</title><g id="Layer_2" data-name="Layer 2"><g id="Layer_1-2" data-name="Layer 1"><rect class="cls-1" width="146.8" height="120.41"/><path class="cls-2" d="M36.35,105.26v-6a3.56,3.56,0,0,0-3.76-3.8,3.7,3.7,0,0,0-3.36,1.7,3.51,3.51,0,0,0-3.16-1.7,3.16,3.16,0,0,0-2.8,1.42V95.7H21.19v9.56h2.1V100a2.24,2.24,0,0,1,2.34-2.54c1.38,0,2.08.9,2.08,2.52v5.32h2.1V100a2.25,2.25,0,0,1,2.34-2.54c1.42,0,2.1.9,2.1,2.52v5.32ZM67.42,95.7H64V92.8h-2.1v2.9H60v1.9h1.94V102c0,2.22.86,3.54,3.32,3.54a4.88,4.88,0,0,0,2.6-.74l-.6-1.78a3.84,3.84,0,0,1-1.84.54c-1,0-1.38-.64-1.38-1.6V97.6h3.4Zm17.74-.24a2.82,2.82,0,0,0-2.52,1.4V95.7H80.58v9.56h2.08V99.9c0-1.58.68-2.46,2-2.46a3.39,3.39,0,0,1,1.3.24l.64-2a4.45,4.45,0,0,0-1.48-.26Zm-26.82,1a7.15,7.15,0,0,0-3.9-1c-2.42,0-4,1.16-4,3.06,0,1.56,1.16,2.52,3.3,2.82l1,.14c1.14.16,1.68.46,1.68,1,0,.74-.76,1.16-2.18,1.16a5.09,5.09,0,0,1-3.18-1l-1,1.62a6.9,6.9,0,0,0,4.14,1.24c2.76,0,4.36-1.3,4.36-3.12s-1.26-2.56-3.34-2.86l-1-.14c-.9-.12-1.62-.3-1.62-.94s.68-1.12,1.82-1.12a6.16,6.16,0,0,1,3,.82Zm55.71-1a2.82,2.82,0,0,0-2.52,1.4V95.7h-2.06v9.56h2.08V99.9c0-1.58.68-2.46,2-2.46a3.39,3.39,0,0,1,1.3.24l.64-2a4.45,4.45,0,0,0-1.48-.26Zm-26.8,5a4.83,4.83,0,0,0,5.1,5,5,5,0,0,0,3.44-1.14l-1-1.68a4.2,4.2,0,0,1-2.5.86,3.07,3.07,0,0,1,0-6.12,4.2,4.2,0,0,1,2.5.86l1-1.68a5,5,0,0,0-3.44-1.14,4.83,4.83,0,0,0-5.1,5Zm19.48,0V95.7h-2.08v1.16a3.63,3.63,0,0,0-3-1.4,5,5,0,0,0,0,10,3.63,3.63,0,0,0,3-1.4v1.16h2.08Zm-7.74,0a2.89,2.89,0,1,1,2.9,3.06,2.87,2.87,0,0,1-2.9-3.06Zm-25.1-5a5,5,0,0,0,.14,10A5.81,5.81,0,0,0,78,104.16l-1-1.54a4.55,4.55,0,0,1-2.78,1,2.65,2.65,0,0,1-2.86-2.34h7.1c0-.26,0-.52,0-.8,0-3-1.86-5-4.54-5Zm0,1.86a2.37,2.37,0,0,1,2.42,2.32h-5a2.46,2.46,0,0,1,2.54-2.32ZM126,100.48V91.86H124v5a3.63,3.63,0,0,0-3-1.4,5,5,0,0,0,0,10,3.63,3.63,0,0,0,3-1.4v1.16H126Zm3.47,3.39a1,1,0,0,1,.38.07,1,1,0,0,1,.31.2,1,1,0,0,1,.21.3.93.93,0,0,1,0,.74,1,1,0,0,1-.21.3,1,1,0,0,1-.31.2.94.94,0,0,1-.38.08,1,1,0,0,1-.9-.58.94.94,0,0,1,0-.74,1,1,0,0,1,.21-.3,1,1,0,0,1,.31-.2A1,1,0,0,1,129.5,103.87Zm0,1.69a.71.71,0,0,0,.29-.06.75.75,0,0,0,.23-.16.74.74,0,0,0,0-1,.74.74,0,0,0-.23-.16.72.72,0,0,0-.29-.06.75.75,0,0,0-.29.06.73.73,0,0,0-.24.16.74.74,0,0,0,0,1,.74.74,0,0,0,.24.16A.74.74,0,0,0,129.5,105.56Zm.06-1.19a.4.4,0,0,1,.26.08.25.25,0,0,1,.09.21.24.24,0,0,1-.07.18.35.35,0,0,1-.21.09l.29.33h-.23l-.27-.33h-.09v.33h-.19v-.88Zm-.22.17v.24h.22a.21.21,0,0,0,.12,0,.1.1,0,0,0,0-.09.1.1,0,0,0,0-.09.21.21,0,0,0-.12,0Zm-11-4.06a2.89,2.89,0,1,1,2.9,3.06,2.87,2.87,0,0,1-2.9-3.06Zm-70.23,0V95.7H46v1.16a3.63,3.63,0,0,0-3-1.4,5,5,0,0,0,0,10,3.63,3.63,0,0,0,3-1.4v1.16h2.08Zm-7.74,0a2.89,2.89,0,1,1,2.9,3.06A2.87,2.87,0,0,1,40.32,100.48Z"/><g id="_Group_" data-name="&lt;Group&gt;"><rect class="cls-3" x="57.65" y="22.85" width="31.5" height="56.61"/><path id="_Path_" data-name="&lt;Path&gt;" class="cls-4" d="M59.65,51.16A35.94,35.94,0,0,1,73.4,22.85a36,36,0,1,0,0,56.61A35.94,35.94,0,0,1,59.65,51.16Z"/><path class="cls-5" d="M131.65,51.16A36,36,0,0,1,73.4,79.46a36,36,0,0,0,0-56.61,36,36,0,0,1,58.25,28.3Z"/><path class="cls-5" d="M128.21,73.46V72.3h.47v-.24h-1.19v.24H128v1.16Zm2.31,0v-1.4h-.36l-.42,1-.42-1H129v1.4h.26V72.41l.39.91h.27l.39-.91v1.06Z"/></g></g></g></svg>