<?xml version="1.0" encoding="UTF-8" standalone="no"?>
<!-- Created with Inkscape (http://www.inkscape.org/) -->

<svg
xmlns:dc="http://purl.org/dc/elements/1.1/"
xmlns:cc="http://creativecommons.org/ns#"
xmlns:rdf="http://www.w3.org/1999/02/22-rdf-syntax-ns#"
xmlns:svg="http://www.w3.org/2000/svg"
xmlns="http://www.w3.org/2000/svg"
xmlns:sodipodi="http://sodipodi.sourceforge.net/DTD/sodipodi-0.dtd"
xmlns:inkscape="http://www.inkscape.org/namespaces/inkscape"
width="220"
height="78"
id="svg2"
version="1.1"
inkscape:version="0.48.2 r9819"
sodipodi:docname="Nielsen Company logo.svg">
<title
id="title3440">The Nielsen Company logo</title>
<defs
id="defs4">
<clipPath
id="clipPath3113"
clipPathUnits="userSpaceOnUse">
<path
id="path3115"
d="m 58.517,38.347 358.387,0 0,34.807 -358.387,0 0,-34.807 z"
inkscape:connector-curvature="0" />
</clipPath>
<clipPath
id="clipPath3029"
clipPathUnits="userSpaceOnUse">
<path
id="path3031"
d="m 58.517,38.347 98.635,0 0,34.807 -98.635,0 0,-34.807 z"
inkscape:connector-curvature="0" />
</clipPath>
<clipPath
id="clipPath3015"
clipPathUnits="userSpaceOnUse">
<path
id="path3017"
d="M 0,0 621,0 621,810 0,810 0,0 z"
inkscape:connector-curvature="0" />
</clipPath>
</defs>
<sodipodi:namedview
id="base"
pagecolor="#ffffff"
bordercolor="#666666"
borderopacity="1.0"
inkscape:pageopacity="0.0"
inkscape:pageshadow="2"
inkscape:zoom="2.6136364"
inkscape:cx="106.93913"
inkscape:cy="39"
inkscape:document-units="px"
inkscape:current-layer="layer1"
showgrid="false"
units="px"
inkscape:window-width="1024"
inkscape:window-height="689"
inkscape:window-x="0"
inkscape:window-y="27"
inkscape:window-maximized="1"
fit-margin-top="0"
fit-margin-left="0"
fit-margin-right="0"
fit-margin-bottom="0" />
<metadata
id="metadata7">
<rdf:RDF>
<cc:Work
rdf:about="">
<dc:format>image/svg+xml</dc:format>
<dc:type
rdf:resource="http://purl.org/dc/dcmitype/StillImage" />
<dc:title>The Nielsen Company logo</dc:title>
<dc:creator>
<cc:Agent>
<dc:title>The Nielsen Company</dc:title>
</cc:Agent>
</dc:creator>
<dc:publisher>
<cc:Agent>
<dc:title>The Nielsen Company</dc:title>
</cc:Agent>
</dc:publisher>
<dc:source>The Nielsen Company</dc:source>
<dc:description>Logo for The Nielsen Company, extracted as vector image from Nielsen Year In Reveiw 2013 report and converted to SVG format.</dc:description>
<dc:contributor>
<cc:Agent>
<dc:title>Hydrargyrum</dc:title>
</cc:Agent>
</dc:contributor>
<dc:date>2014-04-09</dc:date>
</cc:Work>
</rdf:RDF>
</metadata>
<g
inkscape:label="Layer 1"
inkscape:groupmode="layer"
id="layer1"
transform="translate(-62.306015,-918.591)">
<g
id="g3417"
transform="matrix(1.7681296,0,0,1.7681296,-130.58522,-736.50228)">
<g
id="g3405">
<path
id="path3035"
style="fill:#00adef;fill-opacity:1;fill-rule:nonzero;stroke:none"
d="m 116.6792,952.25733 c 0.77,-0.7675 1.42,-1.31875 2.05,-1.71875 0.625,-0.39875 1.41,-0.59875 2.3525,-0.59875 1.4825,0 2.5375,0.50625 3.165,1.5175 0.6275,1.01375 0.9425,2.34875 0.9425,4.0025 l 0,10.78625 c 0,0.455 -0.22875,0.74625 -0.685,0.87625 -0.45625,0.1275 -1.07,0.22 -1.84,0.2775 l 0,0.47 8.73625,0 0,-0.385 c -0.25625,-0.0263 -0.53625,-0.0625 -0.835,-0.10625 -0.3,-0.0425 -0.5775,-0.1 -0.835,-0.17125 -0.25625,-0.0725 -0.47875,-0.1775 -0.6625,-0.32 -0.185,-0.145 -0.27875,-0.315 -0.27875,-0.51375 l 0,-12.5825 c 0,-1.93875 -0.44375,-3.5225 -1.32625,-4.75 -0.885,-1.22625 -2.15375,-1.83875 -3.80875,-1.83875 -0.77,0 -1.51125,0.15 -2.225,0.45 -0.71375,0.29875 -1.37,0.6775 -1.96875,1.1325 -0.5975,0.4575 -1.13375,0.9625 -1.60375,1.52 -0.47125,0.55625 -0.86375,1.07625 -1.17625,1.56125"
inkscape:connector-curvature="0" />
<path
id="path3039"
style="fill:#00adef;fill-opacity:1;fill-rule:nonzero;stroke:none"
d="m 115.60645,953.0467 0,13.2825 c 0.0575,0.28625 0.1575,0.49125 0.29875,0.61875 0.1425,0.13 0.315,0.2225 0.51375,0.28125 0.19875,0.0562 0.42875,0.0925 0.685,0.10625 0.2575,0.0137 0.5275,0.0487 0.81375,0.1075 l 0,0.42625 -8.25875,0 0,-0.42625 c 0.65625,-0.0588 1.22,-0.1875 1.69,-0.385 0.47,-0.20125 0.70625,-0.52625 0.70625,-0.985 l 0,-14.72 c 0,-0.22875 -0.0225,-0.39875 -0.065,-0.51375 -0.0425,-0.11375 -0.16375,-0.24375 -0.3625,-0.38625 -0.2575,-0.1425 -0.5575,-0.30625 -0.89875,-0.49125 -0.3425,-0.18625 -0.685,-0.35 -1.0275,-0.49375 l 0,-0.25625 5.60625,-2.00875 0.28875,0 0.01,5.84375"
inkscape:connector-curvature="0" />
<path
id="path3043"
style="fill:#797a7d;fill-opacity:1;fill-rule:nonzero;stroke:none"
d="m 218.23308,952.25733 c 0.77,-0.7675 1.41875,-1.31875 2.0475,-1.71875 0.6275,-0.39875 1.4125,-0.59875 2.3525,-0.59875 1.485,0 2.54,0.50625 3.16875,1.5175 0.62625,1.01375 0.94,2.3475 0.94,4.0025 l 0,10.78625 c 0,0.455 -0.22875,0.74625 -0.685,0.87625 -0.45625,0.1275 -1.06875,0.22 -1.84,0.2775 l 0,0.47 8.73625,0 0,-0.385 c -0.255,-0.0275 -0.535,-0.0625 -0.835,-0.1075 -0.29875,-0.0412 -0.57625,-0.1 -0.83375,-0.17 -0.2575,-0.0725 -0.4775,-0.1775 -0.6625,-0.32125 -0.18625,-0.14375 -0.2775,-0.31375 -0.2775,-0.5125 l 0,-12.5825 c 0,-1.93875 -0.44375,-3.5225 -1.32625,-4.75 -0.885,-1.22625 -2.15625,-1.83875 -3.81,-1.83875 -0.77,0 -1.5125,0.14875 -2.22625,0.44875 -0.7125,0.3 -1.36875,0.67875 -1.9675,1.13375 -0.59875,0.45625 -1.13375,0.9625 -1.605,1.52 -0.47125,0.555 -0.86125,1.07625 -1.175,1.56"
inkscape:connector-curvature="0" />
<path
id="path3047"
style="fill:#797a7d;fill-opacity:1;fill-rule:nonzero;stroke:none"
d="m 217.15983,953.0457 0,13.28375 c 0.0575,0.285 0.1575,0.49125 0.3,0.62 0.14125,0.12875 0.31375,0.22125 0.5125,0.27875 0.2,0.0575 0.42875,0.0937 0.68625,0.10875 0.25625,0.0125 0.52625,0.0475 0.8125,0.105 l 0,0.4275 -8.25875,0 0,-0.4275 c 0.65625,-0.0575 1.22,-0.18625 1.69,-0.38375 0.47125,-0.20125 0.70625,-0.52625 0.70625,-0.985 l 0,-14.72125 c 0,-0.22875 -0.0225,-0.3975 -0.0625,-0.5125 -0.045,-0.11375 -0.165,-0.24375 -0.365,-0.3875 -0.25625,-0.14125 -0.555,-0.30625 -0.8975,-0.49 -0.34375,-0.1875 -0.68625,-0.35 -1.02875,-0.4925 l 0,-0.2575 5.60625,-2.01 0.29125,0 0.007,5.84375"
inkscape:connector-curvature="0" />
<path
id="path3051"
style="fill:#797a7d;fill-opacity:1;fill-rule:nonzero;stroke:none"
d="m 132.46808,967.87095 0,-0.43375 c 0.34875,-0.03 0.69625,-0.0662 1.045,-0.11 0.34875,-0.045 0.66,-0.1175 0.935,-0.22 0.27625,-0.0987 0.51,-0.2375 0.6975,-0.41125 0.19,-0.17375 0.2825,-0.3925 0.2825,-0.65375 l 0,-14.93875 c 0,-0.23375 -0.02,-0.43625 -0.0637,-0.61 -0.0437,-0.175 -0.1675,-0.33625 -0.37125,-0.48 -0.26,-0.17375 -0.5725,-0.3475 -0.93625,-0.52125 -0.3625,-0.175 -0.74625,-0.335 -1.15375,-0.48 l 0,-0.2625 5.88625,-1.91625 0.26,0 0,19.47 c 0.0588,0.29 0.18125,0.50125 0.37,0.63 0.19,0.1325 0.41375,0.2275 0.67625,0.28375 0.26125,0.06 0.54375,0.095 0.84875,0.11 0.305,0.0138 0.6025,0.05 0.8925,0.11 l 0,0.43375 -9.36875,0"
inkscape:connector-curvature="0" />
<path
id="path3055"
style="fill:#797a7d;fill-opacity:1;fill-rule:nonzero;stroke:none"
d="m 138.6732,942.50532 c -0.43625,0.43625 -0.9775,0.655 -1.6225,0.655 -0.62,0 -1.15375,-0.22625 -1.60375,-0.6775 -0.45,-0.45 -0.675,-0.98625 -0.675,-1.60625 0,-0.65 0.21875,-1.185 0.655,-1.60625 0.435,-0.425 0.975,-0.63625 1.62375,-0.63625 0.645,0 1.18625,0.21125 1.6225,0.63625 0.435,0.42125 0.65375,0.95625 0.65375,1.60625 0,0.6475 -0.21875,1.19125 -0.65375,1.62875"
inkscape:connector-curvature="0" />
<path
id="path3059"
style="fill:#797a7d;fill-opacity:1;fill-rule:nonzero;stroke:none"
d="m 195.33208,953.41295 c 0.0575,-0.3475 0.2175,-0.85 0.48,-1.50125 0.26,-0.65375 0.63,-1.3 1.1075,-1.94 0.48,-0.63625 1.04625,-1.1975 1.69875,-1.675 0.6525,-0.48125 1.385,-0.71875 2.1975,-0.71875 1.24625,0 2.2425,0.38375 2.9825,1.15375 0.7375,0.76875 1.10875,1.69125 1.10875,2.765 0,0.405 -0.05,0.7125 -0.1525,0.915 -0.1025,0.20375 -0.255,0.42125 -0.4575,0.65375 -0.29125,0.115 -0.6225,0.18875 -1.00125,0.2175 -0.3775,0.0287 -0.7825,0.0437 -1.21625,0.0437 -0.67,0 -1.2775,0.008 -1.83,0.0213 -0.55125,0.015 -1.08125,0.0288 -1.5875,0.0425 -0.50875,0.015 -0.8125,0.0225 -1.335,0.0225 l -0.195,0.59375 12.095,0 c -0.0875,-1.21875 -0.3625,-2.2775 -0.82625,-3.17625 -0.46625,-0.90125 -1.0675,-1.64875 -1.81,-2.24125 -0.74,-0.595 -1.61125,-1.03875 -2.6125,-1.3275 -1.00375,-0.29 -2.07125,-0.435 -3.20375,-0.435 -1.395,0 -2.66625,0.295 -3.81375,0.8925 -1.14625,0.595 -2.11875,1.37 -2.9175,2.32875 -0.8,0.95875 -1.41625,2.04 -1.8525,3.245 -0.435,1.20375 -0.65375,2.4175 -0.65375,3.635 0,1.51 0.2325,2.94 0.6975,4.29125 0.46375,1.34875 1.12625,2.525 1.98375,3.52625 0.855,1.0025 1.8925,1.7775 3.1125,2.33 1.22,0.54875 2.5725,0.82625 4.05375,0.82625 1.19125,0 2.2725,-0.2175 3.245,-0.65375 0.97375,-0.435 1.80875,-0.9875 2.505,-1.655 0.69625,-0.6675 1.25125,-1.40125 1.65625,-2.19875 0.4075,-0.79875 0.67,-1.5175 0.785,-2.1575 l -0.34875,-0.0863 c -0.34875,1.0725 -1.0675,1.98125 -2.155,2.72125 -1.09,0.7425 -2.36125,1.11125 -3.81125,1.11125 -1.3375,0 -2.51375,-0.24625 -3.52875,-0.74125 -1.01625,-0.4925 -1.86,-1.16875 -2.5275,-2.02625 -0.6675,-0.85375 -1.1775,-1.8425 -1.52625,-2.96 -0.3475,-1.12 -0.52125,-2.28625 -0.52125,-3.50625 0,-0.32 0.0137,-0.6325 0.0437,-0.93625 0.0288,-0.30375 0.0438,-0.57375 0.0438,-0.80625 l 0.0875,-0.59375"
inkscape:connector-curvature="0" />
<path
id="path3063"
style="fill:#797a7d;fill-opacity:1;fill-rule:nonzero;stroke:none"
d="m 146.9872,953.41107 c 0.0575,-0.3475 0.2175,-0.84875 0.48,-1.50125 0.26,-0.655 0.63125,-1.3 1.1075,-1.93875 0.48,-0.6375 1.04625,-1.19875 1.69875,-1.6775 0.6525,-0.47875 1.38375,-0.71875 2.19875,-0.71875 1.24625,0 2.24125,0.385 2.98,1.15375 0.74,0.77 1.11,1.6925 1.11,2.76625 0,0.40625 -0.05,0.71125 -0.1525,0.915 -0.10125,0.20375 -0.255,0.42125 -0.45625,0.65375 -0.2925,0.115 -0.625,0.18875 -1.0025,0.2175 -0.3775,0.0287 -0.7825,0.0438 -1.21625,0.0438 -0.67,0 -1.27875,0.007 -1.83,0.0213 -0.55125,0.015 -1.08125,0.0287 -1.5875,0.0437 -0.5075,0.0137 -0.81375,0.0213 -1.335,0.0213 l -0.19375,0.59375 12.09375,0 c -0.0875,-1.21875 -0.3625,-2.27625 -0.82625,-3.17625 -0.465,-0.9 -1.0675,-1.6475 -1.81,-2.24125 -0.74,-0.595 -1.61125,-1.04 -2.61375,-1.3275 -1.0025,-0.29125 -2.07,-0.435 -3.2025,-0.435 -1.395,0 -2.66625,0.29625 -3.81375,0.8925 -1.14625,0.595 -2.11875,1.37125 -2.9175,2.32875 -0.8,0.95875 -1.4175,2.04 -1.85125,3.245 -0.4375,1.20375 -0.655,2.4175 -0.655,3.635 0,1.50875 0.2325,2.94 0.6975,4.29125 0.46375,1.34875 1.12625,2.525 1.98375,3.525 0.855,1.0025 1.89375,1.77875 3.11375,2.33125 1.21875,0.55 2.57125,0.825 4.0525,0.825 1.19125,0 2.2725,-0.21625 3.245,-0.6525 0.97375,-0.435 1.81,-0.98625 2.505,-1.655 0.6975,-0.6675 1.25125,-1.4025 1.65625,-2.19875 0.4075,-0.79875 0.67,-1.5175 0.785,-2.1575 l -0.34875,-0.0863 c -0.34875,1.07375 -1.0675,1.98125 -2.15625,2.72125 -1.0875,0.74125 -2.36,1.1125 -3.81,1.1125 -1.33625,0 -2.51375,-0.24875 -3.52875,-0.74125 -1.0175,-0.49375 -1.86,-1.17 -2.5275,-2.02625 -0.6675,-0.855 -1.1775,-1.8425 -1.52625,-2.96125 -0.3475,-1.11875 -0.52125,-2.28625 -0.52125,-3.50625 0,-0.32 0.0138,-0.6325 0.0438,-0.93625 0.0288,-0.305 0.045,-0.57375 0.045,-0.80625 l 0.0863,-0.59375"
inkscape:connector-curvature="0" />
<path
id="path3067"
style="fill:#797a7d;fill-opacity:1;fill-rule:nonzero;stroke:none"
d="m 162.04083,967.87095 0,-0.48 c 1.335,-0.085 2.22,-0.225 2.655,-0.41375 0.4375,-0.1875 0.65625,-0.515 0.65625,-0.97875 l 0,-25.05 c 0,-0.23375 -0.0225,-0.4075 -0.0662,-0.52375 -0.045,-0.11625 -0.16625,-0.24625 -0.37,-0.39375 -0.2625,-0.14375 -0.655,-0.36875 -1.17625,-0.67375 -0.5225,-0.30625 -0.9575,-0.52875 -1.30625,-0.675 l 0,-0.26125 6.23375,-2.0475 0.30375,0 0,29.84375 c 0,0.28875 0.0662,0.50625 0.195,0.6525 0.13125,0.14625 0.32875,0.24625 0.58875,0.30625 0.2625,0.0563 0.59625,0.0937 1.00375,0.10625 0.40625,0.015 0.885,0.0512 1.4375,0.10875 l 0,0.48 -10.155,0"
inkscape:connector-curvature="0" />
<path
id="path3071"
style="fill:#797a7d;fill-opacity:1;fill-rule:nonzero;stroke:none"
d="m 188.22245,964.38857 c -0.44875,0.82875 -1.05125,1.5025 -1.80625,2.02625 -0.75375,0.5225 -1.6175,0.89875 -2.59,1.1325 -0.97125,0.23375 -1.995,0.35 -3.07,0.35 -1.275,0 -2.48,-0.11625 -3.61125,-0.35 -1.1325,-0.23375 -2.1775,-0.565 -3.135,-1.00125 l 0,-5.7525 0.32125,0 c 0.23125,0.6975 0.52375,1.43125 0.87375,2.2 0.35,0.77 0.77125,1.4825 1.26625,2.13625 0.495,0.65375 1.0925,1.19125 1.79,1.61125 0.7,0.4225 1.52875,0.6325 2.49,0.6325 1.3975,0 2.51125,-0.3975 3.34125,-1.1975 0.82875,-0.8 1.24375,-2.02625 1.24375,-3.6825 0,-0.9 -0.285,-1.64875 -0.84875,-2.24375 -0.56875,-0.5975 -1.34625,-0.99625 -2.335,-1.19875 -0.785,-0.14625 -1.54125,-0.30625 -2.2675,-0.48 -0.7275,-0.17375 -1.38375,-0.3625 -1.9625,-0.5675 -1.105,-0.3775 -1.99875,-1.03 -2.68375,-1.96 -0.6825,-0.92875 -1.025,-2.0475 -1.025,-3.355 0,-0.90125 0.19,-1.71375 0.57,-2.44 0.38,-0.72625 0.89,-1.35125 1.5325,-1.87375 0.64125,-0.525 1.3825,-0.9225 2.225,-1.19875 0.8425,-0.2775 1.74125,-0.41375 2.7,-0.41375 1.21875,0 2.29375,0.1075 3.2225,0.32625 0.93,0.2175 1.81625,0.48625 2.6575,0.805 l 0.5225,5.405 -0.3475,0.0875 c -0.4075,-0.8725 -0.815,-1.6775 -1.22,-2.41875 -0.4075,-0.74125 -0.85625,-1.38 -1.35125,-1.91875 -0.4925,-0.53625 -1.0525,-0.95 -1.67625,-1.24125 -0.62375,-0.29 -1.34375,-0.435 -2.15625,-0.435 -0.4925,0 -0.98,0.0863 -1.45875,0.26125 -0.47875,0.17375 -0.9,0.4275 -1.2625,0.76125 -0.3625,0.335 -0.66125,0.75625 -0.89375,1.26375 -0.2325,0.50875 -0.34875,1.0975 -0.34875,1.765 0,1.07625 0.30625,1.84625 0.915,2.31125 0.60875,0.465 1.3775,0.8125 2.30625,1.045 0.63875,0.14625 1.33625,0.2975 2.08875,0.45875 0.755,0.15875 1.40875,0.31125 1.96,0.45625 1.305,0.32 2.41625,0.98875 3.32875,2.0025 0.91375,1.02 1.37125,2.26875 1.37125,3.74875 0,1.13375 -0.22625,2.11375 -0.67625,2.9425"
inkscape:connector-curvature="0" />
</g>
<g
id="g3394">
<path
id="path3075"
style="fill:#797a7d;fill-opacity:1;fill-rule:nonzero;stroke:none"
d="m 115.76895,977.65495 c 0,1.23 -0.99625,2.22625 -2.225,2.22625 -1.23,0 -2.2275,-0.99625 -2.2275,-2.22625 0,-1.22875 0.9975,-2.225 2.2275,-2.225 1.22875,0 2.225,0.99625 2.225,2.225"
inkscape:connector-curvature="0" />
<path
id="path3079"
style="fill:#797a7d;fill-opacity:1;fill-rule:nonzero;stroke:none"
d="m 130.15683,977.65495 c 0,1.23 -0.99625,2.22625 -2.225,2.22625 -1.23125,0 -2.2275,-0.99625 -2.2275,-2.22625 0,-1.22875 0.99625,-2.225 2.2275,-2.225 1.22875,0 2.225,0.99625 2.225,2.225"
inkscape:connector-curvature="0" />
<path
id="path3083"
style="fill:#797a7d;fill-opacity:1;fill-rule:nonzero;stroke:none"
d="m 144.54533,977.65495 c 0,1.23 -0.99625,2.22625 -2.22625,2.22625 -1.23,0 -2.22625,-0.99625 -2.22625,-2.22625 0,-1.22875 0.99625,-2.225 2.22625,-2.225 1.23,0 2.22625,0.99625 2.22625,2.225"
inkscape:connector-curvature="0" />
<path
id="path3087"
style="fill:#797a7d;fill-opacity:1;fill-rule:nonzero;stroke:none"
d="m 158.9332,977.65495 c 0,1.23 -0.99625,2.22625 -2.22625,2.22625 -1.22875,0 -2.22625,-0.99625 -2.22625,-2.22625 0,-1.22875 0.9975,-2.225 2.22625,-2.225 1.23,0 2.22625,0.99625 2.22625,2.225"
inkscape:connector-curvature="0" />
<path
id="path3091"
style="fill:#797a7d;fill-opacity:1;fill-rule:nonzero;stroke:none"
d="m 173.32108,977.65495 c 0,1.23 -0.99625,2.22625 -2.225,2.22625 -1.23125,0 -2.2275,-0.99625 -2.2275,-2.22625 0,-1.22875 0.99625,-2.225 2.2275,-2.225 1.22875,0 2.225,0.99625 2.225,2.225"
inkscape:connector-curvature="0" />
<path
id="path3095"
style="fill:#797a7d;fill-opacity:1;fill-rule:nonzero;stroke:none"
d="m 187.70795,977.65495 c 0,1.23 -0.99625,2.22625 -2.225,2.22625 -1.23,0 -2.2275,-0.99625 -2.2275,-2.22625 0,-1.22875 0.9975,-2.225 2.2275,-2.225 1.22875,0 2.225,0.99625 2.225,2.225"
inkscape:connector-curvature="0" />
<path
id="path3099"
style="fill:#797a7d;fill-opacity:1;fill-rule:nonzero;stroke:none"
d="m 202.09583,977.65495 c 0,1.23 -0.99625,2.22625 -2.225,2.22625 -1.23,0 -2.2275,-0.99625 -2.2275,-2.22625 0,-1.22875 0.9975,-2.225 2.2275,-2.225 1.22875,0 2.225,0.99625 2.225,2.225"
inkscape:connector-curvature="0" />
<path
id="path3103"
style="fill:#797a7d;fill-opacity:1;fill-rule:nonzero;stroke:none"
d="m 230.87158,977.65495 c 0,1.23 -0.99625,2.22625 -2.22625,2.22625 -1.23,0 -2.22625,-0.99625 -2.22625,-2.22625 0,-1.22875 0.99625,-2.225 2.22625,-2.225 1.23,0 2.22625,0.99625 2.22625,2.225"
inkscape:connector-curvature="0" />
<path
id="path3107"
style="fill:#797a7d;fill-opacity:1;fill-rule:nonzero;stroke:none"
d="m 216.4837,977.65495 c 0,1.23 -0.99625,2.22625 -2.225,2.22625 -1.23,0 -2.2275,-0.99625 -2.2275,-2.22625 0,-1.22875 0.9975,-2.225 2.2275,-2.225 1.22875,0 2.225,0.99625 2.225,2.225"
inkscape:connector-curvature="0" />
</g>
</g>
</g>
</svg>
